<?xml version="1.0" encoding="UTF-8"?><svg xmlns="http://www.w3.org/2000/svg" viewBox="0 0 753.34 87.34"><defs><style>.d{fill:#fff;}</style></defs><g id="a"/><g id="b"><g id="c"><g><g><path class="d" d="M19.07,40.59l6.16,27.92-3.39,1.41-6.16-27.92,3.39-1.41Z"/><path class="d" d="M40.14,31.84l.61,2.85-7.09,2.94,5.59,25.05-3.39,1.41-5.59-25.05-7.09,2.94-.61-2.85,17.57-7.29Z"/><path class="d" d="M50.27,33.71c1.14-1.39,2.58-2.45,4.32-3.17,1.59-.66,3.14-.92,4.64-.77,1.5,.15,2.85,.7,4.03,1.65,1.18,.95,2.12,2.26,2.81,3.93,.3,.72,.54,1.52,.74,2.41,.48,2.22,.49,4.37,.03,6.46-.46,2.09-1.32,3.91-2.58,5.48-1.26,1.57-2.79,2.73-4.61,3.49s-3.36,.94-4.87,.64c-1.51-.29-2.76-.92-3.77-1.87l3.24,14.44-3.39,1.41-7.21-32.33,3.39-1.41,.89,4.05c.41-1.54,1.19-3.01,2.33-4.4Zm12.51,3.7c-.75-1.81-1.88-3.02-3.38-3.6-1.5-.59-3.09-.53-4.78,.17-1.24,.52-2.32,1.32-3.24,2.42-.92,1.09-1.55,2.39-1.9,3.89-.35,1.5-.35,3.07,0,4.7,.12,.56,.3,1.16,.56,1.78,.75,1.82,1.89,3.03,3.41,3.63,1.52,.61,3.11,.57,4.78-.13,1.27-.53,2.35-1.33,3.26-2.42,.9-1.09,1.53-2.38,1.88-3.89,.35-1.5,.34-3.09-.04-4.77-.12-.56-.3-1.16-.56-1.78Z"/><path class="d" d="M72.59,28.17l4.19,18.94-3.39,1.41-4.23-18.93-.68-3-.34-1.56c-.53-2.46-.33-4.51,.6-6.13,.93-1.62,2.7-2.98,5.31-4.06l.69,3.04c-1.52,.63-2.51,1.38-2.97,2.26-.47,.88-.53,2.04-.2,3.47l.34,1.56,.68,3Z"/></g><polygon class="d" points="59.4 39.13 0 63.69 .31 65.33 59.71 40.78 59.4 39.13"/><polygon class="d" points="92.47 21.94 93.35 25.07 68.49 35.37 68.8 37.02 93.8 26.66 93.8 26.67 103.72 22.55 92.47 21.94"/><g><path class="d" d="M10.73,55.18C4.93,35.31,14.92,13.77,34.47,5.66c19.55-8.11,41.85,.02,51.83,18.16l2.34-.97C78.12,3.43,54.34-5.31,33.51,3.34,12.68,11.98,2.07,34.99,8.4,56.15l2.34-.97Z"/><path class="d" d="M89.8,32.28c5.73,19.84-4.26,41.31-23.77,49.41-19.51,8.1-41.77,.01-51.77-18.06l-2.34,.97c10.54,19.35,34.28,28.04,55.07,19.41,20.8-8.63,31.4-31.57,25.14-52.7l-2.34,.97Z"/></g><g><path class="d" d="M157.1,.02l-15.88,85.77h-23.85L133.25,.02h23.85Z"/><path class="d" d="M238.15,.02l-3.52,18.98h-22.87l-12.37,66.79h-23.85l12.37-66.79h-22.63L168.8,.02h69.35Z"/><g><path class="d" d="M296.08,20.63c0,4.92,3.95,9.02,9.09,9.02,.37,0,.82,0,1.19-.08-1.42,15.5-5.89,25.63-12.89,34.28-8.35,10.29-19.75,17.21-35.32,21.31-2.61-4.99-5.29-9.09-9.39-13.93,12.3-2.83,22.21-7.08,29.29-13.93,7.23-6.93,10.13-14.09,11.25-22.28h-46.05v-14.76h52.83v.37Zm16.32,0c0,3.95-3.28,7.23-7.23,7.23s-7.23-3.28-7.23-7.23,3.28-7.23,7.23-7.23,7.23,3.28,7.23,7.23Zm-9.84,0c0,1.49,1.12,2.61,2.61,2.61s2.61-1.12,2.61-2.61-1.12-2.61-2.61-2.61-2.61,1.12-2.61,2.61Z"/><path class="d" d="M377.68,36.87c-1.42,15.28-5.74,26.23-13.94,34.13-8.42,8.12-19.08,12.97-34.35,15.2-2.01-4.92-5.07-10.29-8.72-14.76,10.81-1.04,19.3-3.28,25.41-6.63,5.74-3.13,10.58-8.35,12.3-13.79h-47.32v-14.16h66.62Zm-7.23-4.77h-53.06v-13.79h53.06v13.79Z"/><path class="d" d="M392.29,35.16c3.87,7.23,5.66,11.55,8.05,19.38l-11.77,4.03c-2.83-8.87-4.47-12.89-8.05-19.9l11.78-3.5Zm43.82,.52c-2.16,17.36-5.22,26.38-11.48,33.98-6.04,7.38-12.97,11.55-27.65,16.62-2.98-5-4.32-7.08-8.65-11.63,13.71-3.65,20.79-7.08,26.01-13.34,5.22-6.26,6.71-12.45,7.97-28.47l13.79,2.83Zm-27.57-4.03c3.57,6.71,5.29,10.96,7.67,19.15l-11.7,3.88c-2.46-8.35-4.02-12.45-7.6-19.67l11.63-3.36Z"/><path class="d" d="M458.68,84.94h-16.25V16.01h16.25v19.15c14.61,4.1,26.38,9.24,38.68,16.84l-8.2,14.46c-10.28-7.23-19.82-12.07-30.48-15.57v34.06Z"/><path class="d" d="M556.09,20.25c-.3,21.02-4.99,33.31-13.34,43.6-8.35,10.29-19.75,17.21-35.32,21.31-2.61-4.99-5.29-9.09-9.39-13.93,12.3-2.83,22.21-7.08,29.29-13.93,7.23-6.93,10.13-14.09,11.25-22.28h-46.05v-14.76h63.57Z"/><path class="d" d="M559.22,50.96v-12.07h28.54v-8.57h13.64l.08,8.57h10.95v12.07h-10.95l.22,34.58h-13.71l-.08-22.58c-5.59,7.45-12.45,12.45-23.85,18.18-2.61-4.62-4.25-6.86-8.34-10.96,11.85-4.99,18.93-10.43,24.89-19.22h-21.38Z"/><path class="d" d="M685.01,58.48h-65.88v-15.2h65.88v15.2Z"/><path class="d" d="M738.66,85.39c-.97-2.46-1.86-4.84-2.83-7.23-18.41,2.68-34.58,4.77-52.01,6.33l-2.16-16.1c2.31-.08,4.62-.22,6.85-.37,7.9-18.48,14.09-36.81,18.03-52.46l16.84,3.13c-4.4,15.95-10.81,32.79-17.81,48.14,8.05-.67,16.02-1.56,24.07-2.68-3.06-6.26-6.33-12.29-10.29-18.33l14.46-5.81c8.05,12.52,14.38,24.44,19.52,38.45l-14.68,6.93Z"/></g></g></g></g></g></svg>